# xmcd CD database file
#
# Track frame offsets:
#	150
#	11904
#	25176
#	38945
#	51348
#	62054
#	75243
#	88123
#	101700
#	112923
#	125564
#	139620
#	149018
#	164082
#	176653
#	187843
#	199248
#	212070
#	225144
#	236796
#	248038
#	261365
#	274199
#	284439
#	295760
#
# Disc length: 4146 seconds
#
# Revision: 2
# Processed by: cddbd v1.5.2PL0 Copyright (c) Steve Scherf et al.
# Submitted via: CDex 1.99
#
DISCID=74103019
DTITLE=Flamingos, the - Dream Of A Lifetime: 1953-1959 CD2
DYEAR=2010
DGENRE=Doo-wop
TTITLE0=Need Your Love
TTITLE1=I'll Be Home
TTITLE2=Kiss From Your Lips
TTITLE3=Get With It
TTITLE4=Shilly Dilly
TTITLE5=The Vow
TTITLE6=Just For A Kick
TTITLE7=Would I Be Crying (If I Were Lying To you)
TTITLE8=Dream Of A Lifetime
TTITLE9=Whispering Stars
TTITLE10=I'll Be Home [Not Originally Released Alternate Take]
TTITLE11=Chickie Um Bah
TTITLE12=Cry [Not Originally Released]
TTITLE13=Stolen Love
TTITLE14=Nobody's Love
TTITLE15=When [Not Originally Released Alternate Take]
TTITLE16=The Ladder Of Love
TTITLE17=Lovers Never Say Goodbye
TTITLE18=That Love Is You
TTITLE19=But Not For Me [Stereo]
TTITLE20=I Shed A Tear At Your Wedding
TTITLE21=Love Walked In [Stereo]
TTITLE22=At The Prom
TTITLE23=Goodnight Sweetheart [Stereo]
TTITLE24=I Only Have Eyes For You [Stereo]
EXTD=YEAR: 2010
EXTT0=
EXTT1=
EXTT2=
EXTT3=
EXTT4=
EXTT5=
EXTT6=
EXTT7=
EXTT8=
EXTT9=
EXTT10=
EXTT11=
EXTT12=
EXTT13=
EXTT14=
EXTT15=
EXTT16=
EXTT17=
EXTT18=
EXTT19=
EXTT20=
EXTT21=
EXTT22=
EXTT23=
EXTT24=
PLAYORDER=
